<?xml version="1.0" encoding="UTF-8"?>
<svg width="512" height="512" enable-background="new" version="1.0" viewBox="0 0 512 512.00001" xmlns="http://www.w3.org/2000/svg" xmlns:cc="http://creativecommons.org/ns#" xmlns:dc="http://purl.org/dc/elements/1.1/" xmlns:rdf="http://www.w3.org/1999/02/22-rdf-syntax-ns#" xmlns:xlink="http://www.w3.org/1999/xlink">
 <title>Galacritty Icon</title>
 <defs>
  <filter id="filter5297" x="-.005688" y="-.006349" width="1.011" height="1.013" color-interpolation-filters="sRGB">
   <feGaussianBlur stdDeviation="0.91000008"/>
  </filter>
  <linearGradient id="linearGradient5335" x1="296" x2="296" y1="-140" y2="196" gradientUnits="userSpaceOnUse">
   <stop stop-color="#fff" offset="0"/>
   <stop stop-color="#fff" stop-opacity=".457" offset=".3068"/>
   <stop stop-color="#fff" stop-opacity=".1289" offset="1"/>
  </linearGradient>
  <linearGradient id="linearGradient5063" x1="344" x2="344" y1="236" y2="-316" gradientUnits="userSpaceOnUse">
   <stop stop-color="#454943" offset="0"/>
   <stop stop-color="#50514e" offset="1"/>
  </linearGradient>
  <filter id="filter5184" x="-.01244" y="-.342" width="1.025" height="1.684" color-interpolation-filters="sRGB">
   <feGaussianBlur stdDeviation="2.28"/>
  </filter>
  <linearGradient id="linearGradient5513" x1="301" x2="414.9" y1="-116.8" y2="234.9" gradientTransform="translate(-4,4)" gradientUnits="userSpaceOnUse">
   <stop stop-color="#3d117b" offset="0"/>
   <stop stop-color="#ce58d2" offset="1"/>
  </linearGradient>
  <radialGradient id="radialGradient6197" cx="143.5" cy="4.61" r="220" gradientTransform="matrix(-2.036 0 3.011e-8 -1.673 356.3 -88.29)" gradientUnits="userSpaceOnUse">
   <stop stop-color="#cecece" offset="0"/>
   <stop stop-color="#aaa" offset="1"/>
  </radialGradient>
  <filter id="filter8443" x="-.01167" y="-.01235" width="1.023" height="1.025" color-interpolation-filters="sRGB">
   <feGaussianBlur stdDeviation="2.1"/>
  </filter>
  <linearGradient id="linearGradient8613" x1="288" x2="288" y1="496" y2="336" gradientTransform="translate(0,-256)" gradientUnits="userSpaceOnUse">
   <stop offset="0"/>
   <stop stop-opacity="0" offset="1"/>
  </linearGradient>
  <filter id="filter5313-0-1-2" x="-.01138" y="-.0127" width="1.023" height="1.025" color-interpolation-filters="sRGB">
   <feGaussianBlur stdDeviation="1.8200002"/>
  </filter>
  <linearGradient id="linearGradient9103" x1="288" x2="288" y1="-132" y2="196" gradientUnits="userSpaceOnUse">
   <stop offset="0"/>
   <stop stop-opacity=".4258" offset="1"/>
  </linearGradient>
  <clipPath id="clipPath9119">
   <path d="m60-172v400c0 4.432 3.568 8 8 8h424c4.432 0 8.022-3.568 8-8v-400z" fill="#204a87"/>
  </clipPath>
  <clipPath id="clipPath9129">
   <path d="m88-132h376v336h-376z" fill="#204a87"/>
  </clipPath>
  <radialGradient id="radialGradient9527" cx="280" cy="315.5" r="220" gradientTransform="matrix(1 0 0 .03636 0 -171.5)" gradientUnits="userSpaceOnUse">
   <stop stop-color="#f5f5f5" offset="0"/>
   <stop stop-color="#f5f5f5" stop-opacity=".1772" offset="1"/>
  </radialGradient>
  <filter id="filter9671" x="-.01211" y="-.01189" width="1.024" height="1.024" color-interpolation-filters="sRGB">
   <feGaussianBlur stdDeviation="2.22"/>
  </filter>
  <filter id="filter9675" x="-.01211" y="-.01189" width="1.024" height="1.024" color-interpolation-filters="sRGB">
   <feGaussianBlur stdDeviation="2.22"/>
  </filter>
  <radialGradient id="radialGradient9739" cx="-77.88" cy="199.4" r="220" gradientTransform="matrix(-1.891 2.672e-7 0 -.2545 -231.3 242.8)" gradientUnits="userSpaceOnUse">
   <stop stop-color="#e9e9e9" offset="0"/>
   <stop stop-color="#cfcfcf" offset="1"/>
  </radialGradient>
  <linearGradient id="linearGradient9821" x1="304" x2="304" y1="104" y2="-88" gradientUnits="userSpaceOnUse">
   <stop offset="0"/>
   <stop stop-opacity="0" offset="1"/>
  </linearGradient>
  <filter id="filter9969" x="-.006218" y="-.171" width="1.012" height="1.342" color-interpolation-filters="sRGB">
   <feGaussianBlur stdDeviation="1.14"/>
  </filter>
  <clipPath id="clipPath9985">
   <rect x="-500" y="144" width="440" height="32" rx="8" ry="7.625" fill="#5c3566"/>
  </clipPath>
  <linearGradient id="linearGradient10023" x1="-376" x2="-376" y1="168" y2="148" gradientUnits="userSpaceOnUse">
   <stop stop-color="#2c2c2c" offset="0"/>
   <stop stop-color="#2c2c2c" stop-opacity="0" offset="1"/>
  </linearGradient>
  <filter id="filter10037" x="-.06218" y="-1.71" width="1.124" height="4.42" color-interpolation-filters="sRGB">
   <feGaussianBlur stdDeviation="11.4"/>
  </filter>
 </defs>
 <metadata>
  <rdf:RDF>
   <cc:Work rdf:about="">
    <dc:format>image/svg+xml</dc:format>
    <dc:type rdf:resource="http://purl.org/dc/dcmitype/StillImage"/>
    <dc:creator>
     <cc:Agent>
      <dc:title>Greg V; based on GNOME Project</dc:title>
     </cc:Agent>
    </dc:creator>
    <dc:source/>
    <cc:license rdf:resource="http://creativecommons.org/licenses/by-sa/4.0/"/>
    <dc:title>Galacritty Icon</dc:title>
    <dc:subject>
     <rdf:Bag/>
    </dc:subject>
    <dc:date/>
    <dc:rights>
     <cc:Agent>
      <dc:title/>
     </cc:Agent>
    </dc:rights>
    <dc:publisher>
     <cc:Agent>
      <dc:title/>
     </cc:Agent>
    </dc:publisher>
    <dc:identifier/>
    <dc:relation/>
    <dc:language/>
    <dc:coverage/>
    <dc:description/>
    <dc:contributor>
     <cc:Agent>
      <dc:title/>
     </cc:Agent>
    </dc:contributor>
   </cc:Work>
   <cc:License rdf:about="http://creativecommons.org/licenses/by-sa/4.0/">
    <cc:permits rdf:resource="http://creativecommons.org/ns#Reproduction"/>
    <cc:permits rdf:resource="http://creativecommons.org/ns#Distribution"/>
    <cc:requires rdf:resource="http://creativecommons.org/ns#Notice"/>
    <cc:requires rdf:resource="http://creativecommons.org/ns#Attribution"/>
    <cc:permits rdf:resource="http://creativecommons.org/ns#DerivativeWorks"/>
    <cc:requires rdf:resource="http://creativecommons.org/ns#ShareAlike"/>
   </cc:License>
  </rdf:RDF>
 </metadata>
 <g transform="translate(-32.64 240.6)">
  <g display="none">
   <g fill="#eeeeec">
    <rect x="568" y="-196" width="48" height="48" display="inline" enable-background="accumulate"/>
    <rect x="568" y="-116" width="32" height="32" display="inline" enable-background="accumulate"/>
    <rect x="569" y="-58.94" width="22" height="22" display="inline" enable-background="accumulate"/>
    <rect x="568" y="-12" width="16" height="16" display="inline" enable-background="accumulate"/>
    <rect x="568" y="-60" width="24" height="24" display="inline" enable-background="accumulate"/>
   </g>
   <text id="context" x="31.855944" y="-303.69958" display="inline" enable-background="new" fill="#000000" font-family="Cantarell" font-size="18.3px" style="line-height:125%" xml:space="preserve"><tspan x="31.855944" y="-303.69958">apps</tspan></text>
   <text x="31.264769" y="-277.90063" display="inline" enable-background="new" fill="#000000" font-family="Cantarell" font-size="18.3px" font-weight="bold" style="line-height:125%" xml:space="preserve"><tspan x="31.264769" y="-277.90063">utilities-terminal</tspan></text>
   <rect x="24" y="-236" width="512" height="512" display="inline" enable-background="accumulate" fill="#eeeeec"/>
   <path d="m24-236v512h511.9v-512h-36v476h-439.9v-476z" display="inline" enable-background="accumulate" fill="#729fcf" opacity=".4"/>
  </g>
  <g></g>
 </g>
 <g transform="translate(-32.64 240.6)">
  <g display="none">
   <g fill="#eeeeec">
    <rect x="1248" y="-196" width="48" height="48" display="inline" enable-background="accumulate"/>
    <rect x="1248" y="-116" width="32" height="32" display="inline" enable-background="accumulate"/>
    <rect x="1249" y="-58.94" width="22" height="22" display="inline" enable-background="accumulate"/>
    <rect x="1248" y="-12" width="16" height="16" display="inline" enable-background="accumulate"/>
    <rect x="1248" y="-60" width="24" height="24" display="inline" enable-background="accumulate"/>
   </g>
   <text x="711.85596" y="-303.69958" display="inline" enable-background="new" fill="#000000" font-family="Cantarell" font-size="18.3px" style="line-height:125%" xml:space="preserve"><tspan x="711.85596" y="-303.69958">apps</tspan></text>
   <text x="711.26477" y="-277.90063" display="inline" enable-background="new" fill="#000000" font-family="Cantarell" font-size="18.3px" font-weight="bold" style="line-height:125%" xml:space="preserve"><tspan x="711.26477" y="-277.90063">utilities-system-monitor</tspan></text>
   <rect x="704" y="-236" width="512" height="512" display="inline" enable-background="accumulate" fill="#eeeeec"/>
   <path d="m704.1-236v512h511.9v-512h-36v476h-439.9v-476z" display="inline" enable-background="accumulate" fill="#729fcf" opacity=".4"/>
  </g>
  <g>
   <g transform="translate(8.64 -20.32)">
    <g>
     <rect x="60" y="228" width="440" height="16" rx="8" ry="8" enable-background="new" filter="url(#filter10037)" opacity=".3"/>
     <rect x="61" y="228" width="438" height="16" rx="8" ry="7.956" enable-background="new" filter="url(#filter5184)" opacity=".5"/>
     <path d="m60-168v400c0 4.432 3.568 8 8 8h424c4.432 0 8.022-3.568 8-8v-400h-432z" enable-background="new" fill="url(#linearGradient8613)" filter="url(#filter8443)" opacity=".5"/>
     <path d="m60-168v400c0 4.432 3.568 8 8 8h424c4.432 0 8.022-3.568 8-8v-400z" enable-background="new" fill="url(#radialGradient6197)"/>
    </g>
    <path transform="translate(0,4)" d="m68-180h422c4.432 0 10 3.568 10 8v440h-440v-440c0-4.432 3.568-8 8-8z" clip-path="url(#clipPath9119)" enable-background="new" fill="none" filter="url(#filter9675)" opacity=".4" stroke="url(#linearGradient5063)" stroke-linecap="round" stroke-width="8"/>
    <rect transform="rotate(180,0,-5e-6)" x="-500" y="160" width="440" height="16" rx="8" ry="7.625" enable-background="new" fill="url(#radialGradient9739)"/>
    <path transform="translate(0,4)" d="m68-180h422c4.432 0 10 3.568 10 8v440h-440v-440c0-4.432 3.568-8 8-8z" clip-path="url(#clipPath9119)" enable-background="new" fill="none" filter="url(#filter9671)" opacity=".4" stroke="url(#linearGradient9821)" stroke-linecap="round" stroke-width="2"/>
    <path d="m60.03-169c-0.0175 0.2068-0.0332 0.4138-0.0332 0.625v0.75c0 4.224 3.568 7.625 8 7.625h424c4.432 0 8-3.401 8-7.625v-0.75c0-0.2112-0.0157-0.4182-0.0332-0.625-0.3326 3.929-3.756 7-7.967 7h-424c-4.21 0-7.634-3.071-7.967-7z" enable-background="new" fill="url(#radialGradient9527)" opacity=".4"/>
    <path transform="rotate(180,0,-5e-6)" d="m-500 140h440v28c0 4.432-3.568 8-8 8h-424c-4.432 0-8-3.568-8-8z" clip-path="url(#clipPath9985)" enable-background="new" fill="none" filter="url(#filter9969)" opacity=".2" stroke="url(#linearGradient10023)" stroke-linecap="round" stroke-width="4"/>
    <path transform="matrix(1 0 0 -1 4 68)" d="m88-140h376v336h-376z" enable-background="new" fill="none" filter="url(#filter5297)" opacity=".4" stroke="url(#linearGradient5335)" stroke-linecap="round" stroke-width="2"/>
    <g>
     <path d="m92-128h376v336h-376z" enable-background="new" fill="url(#linearGradient5513)"/>
     <path d="m93 208h374c0.554 0 1 0.446 1 1s-0.446 1-1 1h-374c-0.554 0-1-0.446-1-1s0.446-1 1-1z" enable-background="new" fill="#fff" opacity=".2"/>
     <path d="m91.88-116.2v12h376v-12zm0 24v12h376v-12zm0 24v12h376v-12zm0 24v12h376v-12zm0 24v12h376v-12zm0 24v12h376v-12zm0 24v12h376v-12zm0 24v12h376v-12zm0 24v12h376v-12zm0 24v12h376v-12zm0 24v12h376v-12zm0 24v12h376v-12zm0 24v12h376v-12zm0 24v12h376v-12z" enable-background="new" fill="#fff" fill-rule="evenodd" opacity=".02"/>
    </g>
    <path transform="translate(3.884 3.841)" d="m88-132h376v336h-376z" clip-path="url(#clipPath9129)" enable-background="new" fill="none" filter="url(#filter5313-0-1-2)" opacity=".2" stroke="url(#linearGradient9103)" stroke-linecap="round" stroke-width="2"/>
    <path d="m366.9-13.78-87.4 13.19 36.99-127.3-65.15-0.1362-52.51 196.3 80.88-13.22-26.6 150.1" enable-background="new" fill="#15e4e7" fill-opacity=".9176" opacity=".893"/>
   </g>
  </g>
 </g>
</svg>
